<?xml version="1.0" encoding="UTF-8"?>
<svg width="502px" height="497px" viewBox="0 0 502 497" version="1.1" xmlns="http://www.w3.org/2000/svg" xmlns:xlink="http://www.w3.org/1999/xlink">
    <!-- Generator: Sketch 57.1 (83088) - https://sketch.com -->
    <title>typex</title>
    <desc>Created with Sketch.</desc>
    <g id="Symbols" stroke="none" stroke-width="1" fill="none" fill-rule="evenodd">
        <g id="typex" transform="translate(0.500000, 1.000000)">
            <rect id="Rectangle" stroke="#979797" stroke-width="1" fill="#F9F9F9" fill-rule="evenodd" x="0.5" y="0" width="500" height="495"></rect>
            <path d="M385.510299,178.834947 L442.5,73.8914547 C406.106259,49.433649 364.929427,38 318.109452,38 C228.769759,38 131.372745,92.3773545 115.876736,189.698414 C105.676832,253.843886 149.222577,288.114824 205.819974,298.453123 L234.910825,303.854847 C248.098276,306.600724 267.411704,308.221241 264.499601,326.707141 C261.542232,345.208045 237.189206,351.179951 222.462718,351.179951 C188.166294,351.179951 158.743494,334.329573 135.341051,313.652974 L128.671882,307.681068 L64.5,423.488028 C107.034808,446.865489 164.703497,461 216.412183,461 C305.16342,461 402.198308,412.624561 417.769759,314.748324 C428.859891,245.141109 388.467667,211.440353 327.554926,197.305842 L295.02387,189.698414 C284.02427,186.967543 265.842488,184.806853 268.301932,169.576993 C270.972617,152.74162 290.799058,147.850059 303.865799,147.850059 C335.989462,147.850059 362.666134,161.444397 385.510299,178.834947 Z" id="Fill-1" stroke="#FF5500" stroke-width="1" fill="#FFFFFF" fill-rule="evenodd"></path>
            <path d="M1,38.5 L501,38.5" id="Line-4" stroke="#FF5500" stroke-width="1" fill="#FFFFFF" fill-rule="evenodd" stroke-linecap="square"></path>
            <path d="M0.5,461 L500.5,461" id="Line-4-Copy" stroke="#FF5500" stroke-width="1" fill="#FFFFFF" fill-rule="evenodd" stroke-linecap="square"></path>
            <path d="M65,0.5 L65,495.5" id="Line-5" stroke="#FF5500" stroke-width="1" stroke-linecap="square"></path>
            <path id="Line" d="M317.5,34 L317.5,43 L313.5,43 L313.5,141 L317.5,141 L313,150 L308.5,141 L312.5,141 L312.5,43 L308.5,43 L308.5,34 L317.5,34 Z" fill="#979797" fill-rule="nonzero"></path>
            <path id="Line-2" d="M112.528212,177.971963 L121.528037,178.028212 L121.503,182.027 L268.503,182.947 L268.52829,178.946964 L277.49999,183.503125 L268.472042,187.946788 L268.497,183.947 L121.496,183.027 L121.471788,187.028037 L112.471963,186.971788 L112.528212,177.971963 Z" fill="#979797" fill-rule="nonzero"></path>
            <path id="Line-3" d="M128.558956,33.9418063 L137.558194,34.0589562 L137.441044,43.0581937 L133.441,43.006 L128.058,456.506 L132.058194,456.558956 L131.941044,465.558194 L122.941806,465.441044 L123.058956,456.441806 L127.058,456.493 L132.441,42.993 L128.441806,42.9410438 L128.558956,33.9418063 Z" fill="#979797" fill-rule="nonzero"></path>
        </g>
    </g>
</svg>